<svg width="222" height="50" viewBox="0 0 222 50" fill="none" xmlns="http://www.w3.org/2000/svg">
<rect x="1" y="1" width="220" height="48" rx="24" stroke="#323854" stroke-linecap="round" stroke-dasharray="7 7"/>
<path d="M92.2286 17.752C94.7406 17.752 95.8286 18.84 95.8286 20.52C95.8286 21.864 95.0606 22.728 93.9086 23.128C95.3326 23.384 96.2286 24.312 96.2286 25.8C96.2286 27.976 94.6126 29.048 92.1646 29.048C91.5246 29.048 90.7406 29.032 89.8286 29.016C89.4606 29 89.1566 28.696 89.1566 28.328V18.488C89.1566 18.12 89.4606 17.8 89.8286 17.8C91.2046 17.768 92.0046 17.752 92.2286 17.752ZM92.3246 23.896H90.5166V27.704C91.0126 27.752 91.5886 27.768 92.2446 27.768C93.9246 27.768 94.8686 27.064 94.8686 25.72C94.8686 24.552 93.9406 23.896 92.3246 23.896ZM90.5166 19.08V22.696H92.3086C93.5406 22.696 94.4686 21.992 94.4686 20.824C94.4686 19.624 93.7166 19.032 92.1966 19.032C91.8766 19.032 91.3166 19.048 90.5166 19.08ZM103.544 26.888V22.328C103.48 21.544 104.888 21.544 104.824 22.328V28.504C104.888 29.288 103.48 29.288 103.544 28.504V27.976C102.984 28.632 102.072 29.16 101 29.16C99.3356 29.16 98.3436 28.136 98.3436 26.088V22.328C98.2796 21.544 99.6876 21.544 99.6236 22.328V25.8C99.6236 27.24 100.248 27.96 101.48 27.96C102.264 27.96 103.08 27.512 103.544 26.888ZM109.544 27.928C109.848 27.928 110.44 27.736 110.568 27.736C110.872 27.736 111.112 27.944 111.112 28.264C111.112 28.472 111 28.632 110.776 28.776C110.392 29.016 109.88 29.128 109.24 29.128C107.656 29.128 106.984 28.168 106.984 26.264V20.408C106.92 19.624 108.328 19.624 108.264 20.408V21.8H110.296C110.632 21.8 110.904 22.072 110.904 22.392C110.904 22.728 110.632 23 110.296 23H108.264V26.136C108.264 27.336 108.696 27.928 109.544 27.928ZM114.904 27.928C115.208 27.928 115.8 27.736 115.928 27.736C116.232 27.736 116.472 27.944 116.472 28.264C116.472 28.472 116.36 28.632 116.136 28.776C115.752 29.016 115.24 29.128 114.6 29.128C113.016 29.128 112.344 28.168 112.344 26.264V20.408C112.28 19.624 113.688 19.624 113.624 20.408V21.8H115.656C115.992 21.8 116.264 22.072 116.264 22.392C116.264 22.728 115.992 23 115.656 23H113.624V26.136C113.624 27.336 114.056 27.928 114.904 27.928ZM118.314 28.088C117.594 27.384 117.242 26.488 117.242 25.4C117.242 24.312 117.594 23.416 118.314 22.696C119.018 21.992 119.946 21.64 121.082 21.64C122.218 21.64 123.146 21.992 123.866 22.696C124.57 23.416 124.922 24.312 124.922 25.4C124.922 26.488 124.57 27.384 123.866 28.088C123.146 28.808 122.218 29.16 121.082 29.16C119.946 29.16 119.018 28.808 118.314 28.088ZM118.602 25.4C118.602 26.888 119.626 27.96 121.082 27.96C122.538 27.96 123.562 26.92 123.562 25.4C123.562 23.912 122.538 22.84 121.082 22.84C119.658 22.84 118.602 23.88 118.602 25.4ZM128.034 23.8V28.504C128.098 29.288 126.69 29.288 126.754 28.504V22.328C126.69 21.544 128.098 21.544 128.034 22.328V22.68C128.562 22.104 129.49 21.672 130.386 21.672C132.386 21.672 133.378 22.728 133.378 24.84V28.504C133.442 29.288 132.034 29.288 132.098 28.504V25.08C132.098 23.608 131.426 22.872 130.066 22.872C129.25 22.872 128.578 23.176 128.034 23.8Z" fill="#323854"/>
</svg>
